{
    "accessors" : [
        {
            "bufferView" : 0,
            "componentType" : 5123,
            "count" : 10509,
            "max" : [
                6534
            ],
            "min" : [
                0
            ],
            "type" : "SCALAR"
        },
        {
            "bufferView" : 1,
            "componentType" : 5126,
            "count" : 6535,
            "max" : [
                36.377967834472656,
                37.567909240722656,
                -76.6927261352539
            ],
            "min" : [
                -40.52876281738281,
                3.0257599353790283,
                -123.05958557128906
            ],
            "type" : "VEC3"
        },
        {
            "bufferView" : 2,
            "componentType" : 5126,
            "count" : 6535,
            "max" : [
                1.0,
                1.0,
                1.0
            ],
            "min" : [
                -1.0,
                -1.0,
                -1.0
            ],
            "type" : "VEC3"
        },
        {
            "bufferView" : 3,
            "componentType" : 5126,
            "count" : 6535,
            "max" : [
                0.996138334274292,
                0.9948620088398457
            ],
            "min" : [
                0.0052952952682971954,
                0.0058571696281433105
            ],
            "type" : "VEC2"
        },
        {
            "bufferView" : 4,
            "componentType" : 5126,
            "count" : 6535,
            "max" : [
                1.0,
                1.0,
                1.0,
                1.0
            ],
            "min" : [
                1.0,
                1.0,
                1.0,
                1.0
            ],
            "type" : "VEC4"
        },
        {
            "bufferView" : 5,
            "componentType" : 5123,
            "count" : 6535,
            "max" : [
                0,
                0,
                0,
                0
            ],
            "min" : [
                0,
                0,
                0,
                0
            ],
            "type" : "VEC4"
        },
        {
            "bufferView" : 6,
            "componentType" : 5126,
            "count" : 6535,
            "max" : [
                0.0,
                0.0,
                0.0,
                0.0
            ],
            "min" : [
                0.0,
                0.0,
                0.0,
                0.0
            ],
            "type" : "VEC4"
        },
        {
            "bufferView" : 7,
            "componentType" : 5123,
            "count" : 918,
            "max" : [
                429
            ],
            "min" : [
                0
            ],
            "type" : "SCALAR"
        },
        {
            "bufferView" : 8,
            "componentType" : 5126,
            "count" : 430,
            "max" : [
                37.19207000732422,
                122.58607482910156,
                4.464373588562012
            ],
            "min" : [
                -40.34178924560547,
                -119.83199310302734,
                3.2042858600616455
            ],
            "type" : "VEC3"
        },
        {
            "bufferView" : 9,
            "componentType" : 5126,
            "count" : 430,
            "max" : [
                2.758580421868828e-07,
                1.0,
                1.0
            ],
            "min" : [
                -3.3701931556606723e-07,
                -1.0,
                -0.0
            ],
            "type" : "VEC3"
        },
        {
            "bufferView" : 10,
            "componentType" : 5126,
            "count" : 430,
            "max" : [
                0.5116497278213501,
                1.0
            ],
            "min" : [
                0.0,
                0.010317802429199219
            ],
            "type" : "VEC2"
        },
        {
            "bufferView" : 11,
            "componentType" : 5126,
            "count" : 430,
            "max" : [
                1.0,
                1.0,
                1.0,
                1.0
            ],
            "min" : [
                1.0,
                1.0,
                1.0,
                1.0
            ],
            "type" : "VEC4"
        },
        {
            "bufferView" : 12,
            "componentType" : 5123,
            "count" : 430,
            "max" : [
                0,
                0,
                0,
                0
            ],
            "min" : [
                0,
                0,
                0,
                0
            ],
            "type" : "VEC4"
        },
        {
            "bufferView" : 13,
            "componentType" : 5126,
            "count" : 430,
            "max" : [
                0.0,
                0.0,
                0.0,
                0.0
            ],
            "min" : [
                0.0,
                0.0,
                0.0,
                0.0
            ],
            "type" : "VEC4"
        },
        {
            "bufferView" : 14,
            "componentType" : 5123,
            "count" : 3696,
            "max" : [
                696
            ],
            "min" : [
                0
            ],
            "type" : "SCALAR"
        },
        {
            "bufferView" : 15,
            "componentType" : 5126,
            "count" : 697,
            "max" : [
                16.287940979003906,
                76.73565673828125,
                3.2558162212371826
            ],
            "min" : [
                -19.526643753051758,
                -74.390380859375,
                3.2558162212371826
            ],
            "type" : "VEC3"
        },
        {
            "bufferView" : 16,
            "componentType" : 5126,
            "count" : 697,
            "max" : [
                -0.0,
                0.0,
                1.0
            ],
            "min" : [
                -0.0,
                0.0,
                0.9999999403953552
            ],
            "type" : "VEC3"
        },
        {
            "bufferView" : 17,
            "componentType" : 5126,
            "count" : 697,
            "max" : [
                0.0,
                1.0
            ],
            "min" : [
                0.0,
                1.0
            ],
            "type" : "VEC2"
        },
        {
            "bufferView" : 18,
            "componentType" : 5126,
            "count" : 697,
            "max" : [
                1.0,
                1.0,
                1.0,
                1.0
            ],
            "min" : [
                1.0,
                1.0,
                1.0,
                1.0
            ],
            "type" : "VEC4"
        },
        {
            "bufferView" : 19,
            "componentType" : 5123,
            "count" : 697,
            "max" : [
                0,
                0,
                0,
                0
            ],
            "min" : [
                0,
                0,
                0,
                0
            ],
            "type" : "VEC4"
        },
        {
            "bufferView" : 20,
            "componentType" : 5126,
            "count" : 697,
            "max" : [
                0.0,
                0.0,
                0.0,
                0.0
            ],
            "min" : [
                0.0,
                0.0,
                0.0,
                0.0
            ],
            "type" : "VEC4"
        },
        {
            "bufferView" : 21,
            "componentType" : 5123,
            "count" : 10509,
            "max" : [
                6534
            ],
            "min" : [
                0
            ],
            "type" : "SCALAR"
        },
        {
            "bufferView" : 22,
            "componentType" : 5126,
            "count" : 6535,
            "max" : [
                36.377967834472656,
                37.567909240722656,
                -76.6927261352539
            ],
            "min" : [
                -40.52876281738281,
                3.0257599353790283,
                -123.05958557128906
            ],
            "type" : "VEC3"
        },
        {
            "bufferView" : 23,
            "componentType" : 5126,
            "count" : 6535,
            "max" : [
                1.0,
                1.0,
                1.0
            ],
            "min" : [
                -1.0,
                -1.0,
                -1.0
            ],
            "type" : "VEC3"
        },
        {
            "bufferView" : 24,
            "componentType" : 5126,
            "count" : 6535,
            "max" : [
                0.996138334274292,
                0.9948620088398457
            ],
            "min" : [
                0.0052952952682971954,
                0.0058571696281433105
            ],
            "type" : "VEC2"
        },
        {
            "bufferView" : 25,
            "componentType" : 5126,
            "count" : 6535,
            "max" : [
                1.0,
                1.0,
                1.0,
                1.0
            ],
            "min" : [
                1.0,
                1.0,
                1.0,
                1.0
            ],
            "type" : "VEC4"
        },
        {
            "bufferView" : 26,
            "componentType" : 5123,
            "count" : 6535,
            "max" : [
                0,
                0,
                0,
                0
            ],
            "min" : [
                0,
                0,
                0,
                0
            ],
            "type" : "VEC4"
        },
        {
            "bufferView" : 27,
            "componentType" : 5126,
            "count" : 6535,
            "max" : [
                0.0,
                0.0,
                0.0,
                0.0
            ],
            "min" : [
                0.0,
                0.0,
                0.0,
                0.0
            ],
            "type" : "VEC4"
        },
        {
            "bufferView" : 28,
            "componentType" : 5123,
            "count" : 11490,
            "max" : [
                7867
            ],
            "min" : [
                0
            ],
            "type" : "SCALAR"
        },
        {
            "bufferView" : 29,
            "componentType" : 5126,
            "count" : 7868,
            "max" : [
                24.42902374267578,
                87.53038024902344,
                35.70155334472656
            ],
            "min" : [
                -27.666324615478516,
                -85.18509674072266,
                2.739232301712036
            ],
            "type" : "VEC3"
        },
        {
            "bufferView" : 30,
            "componentType" : 5126,
            "count" : 7868,
            "max" : [
                1.0,
                1.0,
                1.0
            ],
            "min" : [
                -1.0,
                -1.0,
                -1.0
            ],
            "type" : "VEC3"
        },
        {
            "bufferView" : 31,
            "componentType" : 5126,
            "count" : 7868,
            "max" : [
                0.9993429780006409,
                1.0
            ],
            "min" : [
                -0.005117684602737427,
                0.006051898002624512
            ],
            "type" : "VEC2"
        },
        {
            "bufferView" : 32,
            "componentType" : 5126,
            "count" : 7868,
            "max" : [
                1.0,
                1.0,
                1.0,
                1.0
            ],
            "min" : [
                1.0,
                1.0,
                1.0,
                1.0
            ],
            "type" : "VEC4"
        },
        {
            "bufferView" : 33,
            "componentType" : 5123,
            "count" : 7868,
            "max" : [
                0,
                0,
                0,
                0
            ],
            "min" : [
                0,
                0,
                0,
                0
            ],
            "type" : "VEC4"
        },
        {
            "bufferView" : 34,
            "componentType" : 5126,
            "count" : 7868,
            "max" : [
                0.0,
                0.0,
                0.0,
                0.0
            ],
            "min" : [
                0.0,
                0.0,
                0.0,
                0.0
            ],
            "type" : "VEC4"
        }
    ],
    "asset" : {
        "generator" : "Khronos Blender glTF 2.0 exporter",
        "version" : "2.0"
    },
    "bufferViews" : [
        {
            "buffer" : 0,
            "byteLength" : 21018,
            "byteOffset" : 0,
            "target" : 34963
        },
        {
            "buffer" : 0,
            "byteLength" : 78420,
            "byteOffset" : 21020,
            "target" : 34962
        },
        {
            "buffer" : 0,
            "byteLength" : 78420,
            "byteOffset" : 99440,
            "target" : 34962
        },
        {
            "buffer" : 0,
            "byteLength" : 52280,
            "byteOffset" : 177860,
            "target" : 34962
        },
        {
            "buffer" : 0,
            "byteLength" : 104560,
            "byteOffset" : 230140,
            "target" : 34962
        },
        {
            "buffer" : 0,
            "byteLength" : 52280,
            "byteOffset" : 334700,
            "target" : 34962
        },
        {
            "buffer" : 0,
            "byteLength" : 104560,
            "byteOffset" : 386980,
            "target" : 34962
        },
        {
            "buffer" : 0,
            "byteLength" : 1836,
            "byteOffset" : 491540,
            "target" : 34963
        },
        {
            "buffer" : 0,
            "byteLength" : 5160,
            "byteOffset" : 493376,
            "target" : 34962
        },
        {
            "buffer" : 0,
            "byteLength" : 5160,
            "byteOffset" : 498536,
            "target" : 34962
        },
        {
            "buffer" : 0,
            "byteLength" : 3440,
            "byteOffset" : 503696,
            "target" : 34962
        },
        {
            "buffer" : 0,
            "byteLength" : 6880,
            "byteOffset" : 507136,
            "target" : 34962
        },
        {
            "buffer" : 0,
            "byteLength" : 3440,
            "byteOffset" : 514016,
            "target" : 34962
        },
        {
            "buffer" : 0,
            "byteLength" : 6880,
            "byteOffset" : 517456,
            "target" : 34962
        },
        {
            "buffer" : 0,
            "byteLength" : 7392,
            "byteOffset" : 524336,
            "target" : 34963
        },
        {
            "buffer" : 0,
            "byteLength" : 8364,
            "byteOffset" : 531728,
            "target" : 34962
        },
        {
            "buffer" : 0,
            "byteLength" : 8364,
            "byteOffset" : 540092,
            "target" : 34962
        },
        {
            "buffer" : 0,
            "byteLength" : 5576,
            "byteOffset" : 548456,
            "target" : 34962
        },
        {
            "buffer" : 0,
            "byteLength" : 11152,
            "byteOffset" : 554032,
            "target" : 34962
        },
        {
            "buffer" : 0,
            "byteLength" : 5576,
            "byteOffset" : 565184,
            "target" : 34962
        },
        {
            "buffer" : 0,
            "byteLength" : 11152,
            "byteOffset" : 570760,
            "target" : 34962
        },
        {
            "buffer" : 0,
            "byteLength" : 21018,
            "byteOffset" : 581912,
            "target" : 34963
        },
        {
            "buffer" : 0,
            "byteLength" : 78420,
            "byteOffset" : 602932,
            "target" : 34962
        },
        {
            "buffer" : 0,
            "byteLength" : 78420,
            "byteOffset" : 681352,
            "target" : 34962
        },
        {
            "buffer" : 0,
            "byteLength" : 52280,
            "byteOffset" : 759772,
            "target" : 34962
        },
        {
            "buffer" : 0,
            "byteLength" : 104560,
            "byteOffset" : 812052,
            "target" : 34962
        },
        {
            "buffer" : 0,
            "byteLength" : 52280,
            "byteOffset" : 916612,
            "target" : 34962
        },
        {
            "buffer" : 0,
            "byteLength" : 104560,
            "byteOffset" : 968892,
            "target" : 34962
        },
        {
            "buffer" : 0,
            "byteLength" : 22980,
            "byteOffset" : 1073452,
            "target" : 34963
        },
        {
            "buffer" : 0,
            "byteLength" : 94416,
            "byteOffset" : 1096432,
            "target" : 34962
        },
        {
            "buffer" : 0,
            "byteLength" : 94416,
            "byteOffset" : 1190848,
            "target" : 34962
        },
        {
            "buffer" : 0,
            "byteLength" : 62944,
            "byteOffset" : 1285264,
            "target" : 34962
        },
        {
            "buffer" : 0,
            "byteLength" : 125888,
            "byteOffset" : 1348208,
            "target" : 34962
        },
        {
            "buffer" : 0,
            "byteLength" : 62944,
            "byteOffset" : 1474096,
            "target" : 34962
        },
        {
            "buffer" : 0,
            "byteLength" : 125888,
            "byteOffset" : 1537040,
            "target" : 34962
        }
    ],
    "buffers" : [
        {
            "byteLength" : 1662928,
            "uri" : "duveen_gallery.bin"
        }
    ],
    "meshes" : [
        {
            "name" : "CUwall_outline.001_a.000",
            "primitives" : [
                {
                    "attributes" : {
                        "COLOR_0" : 4,
                        "JOINTS_0" : 5,
                        "NORMAL" : 2,
                        "POSITION" : 1,
                        "TEXCOORD_0" : 3,
                        "WEIGHTS_0" : 6
                    },
                    "indices" : 0
                }
            ]
        },
        {
            "name" : "Duveen Empty 2.002",
            "primitives" : [
                {
                    "attributes" : {
                        "COLOR_0" : 11,
                        "JOINTS_0" : 12,
                        "NORMAL" : 9,
                        "POSITION" : 8,
                        "TEXCOORD_0" : 10,
                        "WEIGHTS_0" : 13
                    },
                    "indices" : 7
                },
                {
                    "attributes" : {
                        "COLOR_0" : 18,
                        "JOINTS_0" : 19,
                        "NORMAL" : 16,
                        "POSITION" : 15,
                        "TEXCOORD_0" : 17,
                        "WEIGHTS_0" : 20
                    },
                    "indices" : 14
                }
            ]
        },
        {
            "name" : "CUwall_outline.001_a.002",
            "primitives" : [
                {
                    "attributes" : {
                        "COLOR_0" : 25,
                        "JOINTS_0" : 26,
                        "NORMAL" : 23,
                        "POSITION" : 22,
                        "TEXCOORD_0" : 24,
                        "WEIGHTS_0" : 27
                    },
                    "indices" : 21
                }
            ]
        },
        {
            "name" : "Duveen Empty 2.026",
            "primitives" : [
                {
                    "attributes" : {
                        "COLOR_0" : 32,
                        "JOINTS_0" : 33,
                        "NORMAL" : 30,
                        "POSITION" : 29,
                        "TEXCOORD_0" : 31,
                        "WEIGHTS_0" : 34
                    },
                    "indices" : 28
                }
            ]
        }
    ],
    "nodes" : [
        {
            "name" : "CameraForward",
            "rotation" : [
                0.6605334877967834,
                0.006866033188998699,
                -0.006118407938629389,
                0.7507404088973999
            ],
            "scale" : [
                0.9999999403953552,
                1.0,
                1.0
            ],
            "translation" : [
                0.0,
                15.650489807128906,
                -0.0
            ]
        },
        {
            "mesh" : 3,
            "name" : "center",
            "rotation" : [
                -0.7071068286895752,
                0.0,
                -0.0,
                0.7071068286895752
            ],
            "translation" : [
                -2.384185791015625e-07,
                2.384185791015625e-07,
                -0.0
            ]
        },
        {
            "mesh" : 1,
            "name" : "navmesh",
            "rotation" : [
                -0.7071068286895752,
                0.0,
                -0.0,
                0.7071068286895752
            ],
            "translation" : [
                -2.384185791015625e-07,
                2.384185791015625e-07,
                -0.0
            ]
        },
        {
            "mesh" : 2,
            "name" : "side"
        },
        {
            "mesh" : 0,
            "name" : "side.001",
            "rotation" : [
                0.0,
                1.0,
                -0.0,
                -1.6292068494294654e-07
            ],
            "translation" : [
                -3.1497480869293213,
                0.0,
                -2.7541000843048096
            ]
        }
    ],
    "scene" : 0,
    "scenes" : [
        {
            "name" : "Scene",
            "nodes" : [
                4,
                2,
                1,
                0,
                3
            ]
        }
    ]
}
